<svg width="100%" viewBox="0 0 714 96" xmlns="http://www.w3.org/2000/svg">
  <style>
    .pixel { shape-rendering: crispEdges; }
  </style>
  <!-- Background Plate -->
  <rect class="pixel" x="0" y="0" width="714" height="96" fill="#fdf6da" rx="6" />
  <rect class="pixel" x="6" y="6" width="702" height="84" fill="none" stroke="#05021c" stroke-width="6" />
  <rect class="pixel" x="30" y="30" width="6" height="6" fill="#ffd9c2" />
  <rect class="pixel" x="36" y="30" width="6" height="6" fill="#ffd9c2" />
  <rect class="pixel" x="42" y="30" width="6" height="6" fill="#ffd9c2" />
  <rect class="pixel" x="48" y="30" width="6" height="6" fill="#ffd9c2" />
  <rect class="pixel" x="30" y="36" width="6" height="6" fill="#ffd9c2" />
  <rect class="pixel" x="54" y="36" width="6" height="6" fill="#ffd9c2" />
  <rect class="pixel" x="30" y="42" width="6" height="6" fill="#ffd9c2" />
  <rect class="pixel" x="54" y="42" width="6" height="6" fill="#ffd9c2" />
  <rect class="pixel" x="30" y="48" width="6" height="6" fill="#ffd9c2" />
  <rect class="pixel" x="36" y="48" width="6" height="6" fill="#ffd9c2" />
  <rect class="pixel" x="42" y="48" width="6" height="6" fill="#ffd9c2" />
  <rect class="pixel" x="48" y="48" width="6" height="6" fill="#ffd9c2" />
  <rect class="pixel" x="30" y="54" width="6" height="6" fill="#ffd9c2" />
  <rect class="pixel" x="42" y="54" width="6" height="6" fill="#ffd9c2" />
  <rect class="pixel" x="30" y="60" width="6" height="6" fill="#ffd9c2" />
  <rect class="pixel" x="48" y="60" width="6" height="6" fill="#ffd9c2" />
  <rect class="pixel" x="30" y="66" width="6" height="6" fill="#ffd9c2" />
  <rect class="pixel" x="54" y="66" width="6" height="6" fill="#ffd9c2" />
  <rect class="pixel" x="72" y="30" width="6" height="6" fill="#ffd9c2" />
  <rect class="pixel" x="78" y="30" width="6" height="6" fill="#ffd9c2" />
  <rect class="pixel" x="84" y="30" width="6" height="6" fill="#ffd9c2" />
  <rect class="pixel" x="90" y="30" width="6" height="6" fill="#ffd9c2" />
  <rect class="pixel" x="96" y="30" width="6" height="6" fill="#ffd9c2" />
  <rect class="pixel" x="84" y="36" width="6" height="6" fill="#ffd9c2" />
  <rect class="pixel" x="84" y="42" width="6" height="6" fill="#ffd9c2" />
  <rect class="pixel" x="84" y="48" width="6" height="6" fill="#ffd9c2" />
  <rect class="pixel" x="84" y="54" width="6" height="6" fill="#ffd9c2" />
  <rect class="pixel" x="84" y="60" width="6" height="6" fill="#ffd9c2" />
  <rect class="pixel" x="72" y="66" width="6" height="6" fill="#ffd9c2" />
  <rect class="pixel" x="78" y="66" width="6" height="6" fill="#ffd9c2" />
  <rect class="pixel" x="84" y="66" width="6" height="6" fill="#ffd9c2" />
  <rect class="pixel" x="90" y="66" width="6" height="6" fill="#ffd9c2" />
  <rect class="pixel" x="96" y="66" width="6" height="6" fill="#ffd9c2" />
  <rect class="pixel" x="120" y="30" width="6" height="6" fill="#ffd9c2" />
  <rect class="pixel" x="126" y="30" width="6" height="6" fill="#ffd9c2" />
  <rect class="pixel" x="132" y="30" width="6" height="6" fill="#ffd9c2" />
  <rect class="pixel" x="138" y="30" width="6" height="6" fill="#ffd9c2" />
  <rect class="pixel" x="114" y="36" width="6" height="6" fill="#ffd9c2" />
  <rect class="pixel" x="114" y="42" width="6" height="6" fill="#ffd9c2" />
  <rect class="pixel" x="120" y="48" width="6" height="6" fill="#ffd9c2" />
  <rect class="pixel" x="126" y="48" width="6" height="6" fill="#ffd9c2" />
  <rect class="pixel" x="132" y="48" width="6" height="6" fill="#ffd9c2" />
  <rect class="pixel" x="138" y="54" width="6" height="6" fill="#ffd9c2" />
  <rect class="pixel" x="138" y="60" width="6" height="6" fill="#ffd9c2" />
  <rect class="pixel" x="114" y="66" width="6" height="6" fill="#ffd9c2" />
  <rect class="pixel" x="120" y="66" width="6" height="6" fill="#ffd9c2" />
  <rect class="pixel" x="126" y="66" width="6" height="6" fill="#ffd9c2" />
  <rect class="pixel" x="132" y="66" width="6" height="6" fill="#ffd9c2" />
  <rect class="pixel" x="156" y="30" width="6" height="6" fill="#ffd9c2" />
  <rect class="pixel" x="180" y="30" width="6" height="6" fill="#ffd9c2" />
  <rect class="pixel" x="156" y="36" width="6" height="6" fill="#ffd9c2" />
  <rect class="pixel" x="180" y="36" width="6" height="6" fill="#ffd9c2" />
  <rect class="pixel" x="156" y="42" width="6" height="6" fill="#ffd9c2" />
  <rect class="pixel" x="180" y="42" width="6" height="6" fill="#ffd9c2" />
  <rect class="pixel" x="156" y="48" width="6" height="6" fill="#ffd9c2" />
  <rect class="pixel" x="162" y="48" width="6" height="6" fill="#ffd9c2" />
  <rect class="pixel" x="168" y="48" width="6" height="6" fill="#ffd9c2" />
  <rect class="pixel" x="174" y="48" width="6" height="6" fill="#ffd9c2" />
  <rect class="pixel" x="180" y="48" width="6" height="6" fill="#ffd9c2" />
  <rect class="pixel" x="156" y="54" width="6" height="6" fill="#ffd9c2" />
  <rect class="pixel" x="180" y="54" width="6" height="6" fill="#ffd9c2" />
  <rect class="pixel" x="156" y="60" width="6" height="6" fill="#ffd9c2" />
  <rect class="pixel" x="180" y="60" width="6" height="6" fill="#ffd9c2" />
  <rect class="pixel" x="156" y="66" width="6" height="6" fill="#ffd9c2" />
  <rect class="pixel" x="180" y="66" width="6" height="6" fill="#ffd9c2" />
  <rect class="pixel" x="198" y="30" width="6" height="6" fill="#ffd9c2" />
  <rect class="pixel" x="204" y="30" width="6" height="6" fill="#ffd9c2" />
  <rect class="pixel" x="210" y="30" width="6" height="6" fill="#ffd9c2" />
  <rect class="pixel" x="216" y="30" width="6" height="6" fill="#ffd9c2" />
  <rect class="pixel" x="222" y="30" width="6" height="6" fill="#ffd9c2" />
  <rect class="pixel" x="210" y="36" width="6" height="6" fill="#ffd9c2" />
  <rect class="pixel" x="210" y="42" width="6" height="6" fill="#ffd9c2" />
  <rect class="pixel" x="210" y="48" width="6" height="6" fill="#ffd9c2" />
  <rect class="pixel" x="210" y="54" width="6" height="6" fill="#ffd9c2" />
  <rect class="pixel" x="210" y="60" width="6" height="6" fill="#ffd9c2" />
  <rect class="pixel" x="198" y="66" width="6" height="6" fill="#ffd9c2" />
  <rect class="pixel" x="204" y="66" width="6" height="6" fill="#ffd9c2" />
  <rect class="pixel" x="210" y="66" width="6" height="6" fill="#ffd9c2" />
  <rect class="pixel" x="216" y="66" width="6" height="6" fill="#ffd9c2" />
  <rect class="pixel" x="222" y="66" width="6" height="6" fill="#ffd9c2" />
  <rect class="pixel" x="282" y="30" width="6" height="6" fill="#ffd9c2" />
  <rect class="pixel" x="288" y="30" width="6" height="6" fill="#ffd9c2" />
  <rect class="pixel" x="294" y="30" width="6" height="6" fill="#ffd9c2" />
  <rect class="pixel" x="300" y="30" width="6" height="6" fill="#ffd9c2" />
  <rect class="pixel" x="282" y="36" width="6" height="6" fill="#ffd9c2" />
  <rect class="pixel" x="306" y="36" width="6" height="6" fill="#ffd9c2" />
  <rect class="pixel" x="282" y="42" width="6" height="6" fill="#ffd9c2" />
  <rect class="pixel" x="306" y="42" width="6" height="6" fill="#ffd9c2" />
  <rect class="pixel" x="282" y="48" width="6" height="6" fill="#ffd9c2" />
  <rect class="pixel" x="288" y="48" width="6" height="6" fill="#ffd9c2" />
  <rect class="pixel" x="294" y="48" width="6" height="6" fill="#ffd9c2" />
  <rect class="pixel" x="300" y="48" width="6" height="6" fill="#ffd9c2" />
  <rect class="pixel" x="282" y="54" width="6" height="6" fill="#ffd9c2" />
  <rect class="pixel" x="306" y="54" width="6" height="6" fill="#ffd9c2" />
  <rect class="pixel" x="282" y="60" width="6" height="6" fill="#ffd9c2" />
  <rect class="pixel" x="306" y="60" width="6" height="6" fill="#ffd9c2" />
  <rect class="pixel" x="282" y="66" width="6" height="6" fill="#ffd9c2" />
  <rect class="pixel" x="288" y="66" width="6" height="6" fill="#ffd9c2" />
  <rect class="pixel" x="294" y="66" width="6" height="6" fill="#ffd9c2" />
  <rect class="pixel" x="300" y="66" width="6" height="6" fill="#ffd9c2" />
  <rect class="pixel" x="324" y="30" width="6" height="6" fill="#ffd9c2" />
  <rect class="pixel" x="348" y="30" width="6" height="6" fill="#ffd9c2" />
  <rect class="pixel" x="324" y="36" width="6" height="6" fill="#ffd9c2" />
  <rect class="pixel" x="348" y="36" width="6" height="6" fill="#ffd9c2" />
  <rect class="pixel" x="324" y="42" width="6" height="6" fill="#ffd9c2" />
  <rect class="pixel" x="348" y="42" width="6" height="6" fill="#ffd9c2" />
  <rect class="pixel" x="324" y="48" width="6" height="6" fill="#ffd9c2" />
  <rect class="pixel" x="330" y="48" width="6" height="6" fill="#ffd9c2" />
  <rect class="pixel" x="336" y="48" width="6" height="6" fill="#ffd9c2" />
  <rect class="pixel" x="342" y="48" width="6" height="6" fill="#ffd9c2" />
  <rect class="pixel" x="348" y="48" width="6" height="6" fill="#ffd9c2" />
  <rect class="pixel" x="324" y="54" width="6" height="6" fill="#ffd9c2" />
  <rect class="pixel" x="348" y="54" width="6" height="6" fill="#ffd9c2" />
  <rect class="pixel" x="324" y="60" width="6" height="6" fill="#ffd9c2" />
  <rect class="pixel" x="348" y="60" width="6" height="6" fill="#ffd9c2" />
  <rect class="pixel" x="324" y="66" width="6" height="6" fill="#ffd9c2" />
  <rect class="pixel" x="348" y="66" width="6" height="6" fill="#ffd9c2" />
  <rect class="pixel" x="372" y="30" width="6" height="6" fill="#ffd9c2" />
  <rect class="pixel" x="378" y="30" width="6" height="6" fill="#ffd9c2" />
  <rect class="pixel" x="384" y="30" width="6" height="6" fill="#ffd9c2" />
  <rect class="pixel" x="366" y="36" width="6" height="6" fill="#ffd9c2" />
  <rect class="pixel" x="390" y="36" width="6" height="6" fill="#ffd9c2" />
  <rect class="pixel" x="366" y="42" width="6" height="6" fill="#ffd9c2" />
  <rect class="pixel" x="390" y="42" width="6" height="6" fill="#ffd9c2" />
  <rect class="pixel" x="366" y="48" width="6" height="6" fill="#ffd9c2" />
  <rect class="pixel" x="372" y="48" width="6" height="6" fill="#ffd9c2" />
  <rect class="pixel" x="378" y="48" width="6" height="6" fill="#ffd9c2" />
  <rect class="pixel" x="384" y="48" width="6" height="6" fill="#ffd9c2" />
  <rect class="pixel" x="390" y="48" width="6" height="6" fill="#ffd9c2" />
  <rect class="pixel" x="366" y="54" width="6" height="6" fill="#ffd9c2" />
  <rect class="pixel" x="390" y="54" width="6" height="6" fill="#ffd9c2" />
  <rect class="pixel" x="366" y="60" width="6" height="6" fill="#ffd9c2" />
  <rect class="pixel" x="390" y="60" width="6" height="6" fill="#ffd9c2" />
  <rect class="pixel" x="366" y="66" width="6" height="6" fill="#ffd9c2" />
  <rect class="pixel" x="390" y="66" width="6" height="6" fill="#ffd9c2" />
  <rect class="pixel" x="408" y="30" width="6" height="6" fill="#ffd9c2" />
  <rect class="pixel" x="432" y="30" width="6" height="6" fill="#ffd9c2" />
  <rect class="pixel" x="408" y="36" width="6" height="6" fill="#ffd9c2" />
  <rect class="pixel" x="414" y="36" width="6" height="6" fill="#ffd9c2" />
  <rect class="pixel" x="432" y="36" width="6" height="6" fill="#ffd9c2" />
  <rect class="pixel" x="408" y="42" width="6" height="6" fill="#ffd9c2" />
  <rect class="pixel" x="420" y="42" width="6" height="6" fill="#ffd9c2" />
  <rect class="pixel" x="432" y="42" width="6" height="6" fill="#ffd9c2" />
  <rect class="pixel" x="408" y="48" width="6" height="6" fill="#ffd9c2" />
  <rect class="pixel" x="426" y="48" width="6" height="6" fill="#ffd9c2" />
  <rect class="pixel" x="432" y="48" width="6" height="6" fill="#ffd9c2" />
  <rect class="pixel" x="408" y="54" width="6" height="6" fill="#ffd9c2" />
  <rect class="pixel" x="432" y="54" width="6" height="6" fill="#ffd9c2" />
  <rect class="pixel" x="408" y="60" width="6" height="6" fill="#ffd9c2" />
  <rect class="pixel" x="432" y="60" width="6" height="6" fill="#ffd9c2" />
  <rect class="pixel" x="408" y="66" width="6" height="6" fill="#ffd9c2" />
  <rect class="pixel" x="432" y="66" width="6" height="6" fill="#ffd9c2" />
  <rect class="pixel" x="450" y="30" width="6" height="6" fill="#ffd9c2" />
  <rect class="pixel" x="474" y="30" width="6" height="6" fill="#ffd9c2" />
  <rect class="pixel" x="450" y="36" width="6" height="6" fill="#ffd9c2" />
  <rect class="pixel" x="474" y="36" width="6" height="6" fill="#ffd9c2" />
  <rect class="pixel" x="450" y="42" width="6" height="6" fill="#ffd9c2" />
  <rect class="pixel" x="474" y="42" width="6" height="6" fill="#ffd9c2" />
  <rect class="pixel" x="450" y="48" width="6" height="6" fill="#ffd9c2" />
  <rect class="pixel" x="474" y="48" width="6" height="6" fill="#ffd9c2" />
  <rect class="pixel" x="450" y="54" width="6" height="6" fill="#ffd9c2" />
  <rect class="pixel" x="474" y="54" width="6" height="6" fill="#ffd9c2" />
  <rect class="pixel" x="450" y="60" width="6" height="6" fill="#ffd9c2" />
  <rect class="pixel" x="474" y="60" width="6" height="6" fill="#ffd9c2" />
  <rect class="pixel" x="456" y="66" width="6" height="6" fill="#ffd9c2" />
  <rect class="pixel" x="462" y="66" width="6" height="6" fill="#ffd9c2" />
  <rect class="pixel" x="468" y="66" width="6" height="6" fill="#ffd9c2" />
  <rect class="pixel" x="498" y="30" width="6" height="6" fill="#ffd9c2" />
  <rect class="pixel" x="504" y="30" width="6" height="6" fill="#ffd9c2" />
  <rect class="pixel" x="510" y="30" width="6" height="6" fill="#ffd9c2" />
  <rect class="pixel" x="516" y="30" width="6" height="6" fill="#ffd9c2" />
  <rect class="pixel" x="492" y="36" width="6" height="6" fill="#ffd9c2" />
  <rect class="pixel" x="492" y="42" width="6" height="6" fill="#ffd9c2" />
  <rect class="pixel" x="498" y="48" width="6" height="6" fill="#ffd9c2" />
  <rect class="pixel" x="504" y="48" width="6" height="6" fill="#ffd9c2" />
  <rect class="pixel" x="510" y="48" width="6" height="6" fill="#ffd9c2" />
  <rect class="pixel" x="516" y="54" width="6" height="6" fill="#ffd9c2" />
  <rect class="pixel" x="516" y="60" width="6" height="6" fill="#ffd9c2" />
  <rect class="pixel" x="492" y="66" width="6" height="6" fill="#ffd9c2" />
  <rect class="pixel" x="498" y="66" width="6" height="6" fill="#ffd9c2" />
  <rect class="pixel" x="504" y="66" width="6" height="6" fill="#ffd9c2" />
  <rect class="pixel" x="510" y="66" width="6" height="6" fill="#ffd9c2" />
  <rect class="pixel" x="534" y="30" width="6" height="6" fill="#ffd9c2" />
  <rect class="pixel" x="558" y="30" width="6" height="6" fill="#ffd9c2" />
  <rect class="pixel" x="534" y="36" width="6" height="6" fill="#ffd9c2" />
  <rect class="pixel" x="558" y="36" width="6" height="6" fill="#ffd9c2" />
  <rect class="pixel" x="534" y="42" width="6" height="6" fill="#ffd9c2" />
  <rect class="pixel" x="558" y="42" width="6" height="6" fill="#ffd9c2" />
  <rect class="pixel" x="534" y="48" width="6" height="6" fill="#ffd9c2" />
  <rect class="pixel" x="540" y="48" width="6" height="6" fill="#ffd9c2" />
  <rect class="pixel" x="546" y="48" width="6" height="6" fill="#ffd9c2" />
  <rect class="pixel" x="552" y="48" width="6" height="6" fill="#ffd9c2" />
  <rect class="pixel" x="558" y="48" width="6" height="6" fill="#ffd9c2" />
  <rect class="pixel" x="534" y="54" width="6" height="6" fill="#ffd9c2" />
  <rect class="pixel" x="558" y="54" width="6" height="6" fill="#ffd9c2" />
  <rect class="pixel" x="534" y="60" width="6" height="6" fill="#ffd9c2" />
  <rect class="pixel" x="558" y="60" width="6" height="6" fill="#ffd9c2" />
  <rect class="pixel" x="534" y="66" width="6" height="6" fill="#ffd9c2" />
  <rect class="pixel" x="558" y="66" width="6" height="6" fill="#ffd9c2" />
  <rect class="pixel" x="582" y="30" width="6" height="6" fill="#ffd9c2" />
  <rect class="pixel" x="588" y="30" width="6" height="6" fill="#ffd9c2" />
  <rect class="pixel" x="594" y="30" width="6" height="6" fill="#ffd9c2" />
  <rect class="pixel" x="576" y="36" width="6" height="6" fill="#ffd9c2" />
  <rect class="pixel" x="600" y="36" width="6" height="6" fill="#ffd9c2" />
  <rect class="pixel" x="576" y="42" width="6" height="6" fill="#ffd9c2" />
  <rect class="pixel" x="600" y="42" width="6" height="6" fill="#ffd9c2" />
  <rect class="pixel" x="576" y="48" width="6" height="6" fill="#ffd9c2" />
  <rect class="pixel" x="582" y="48" width="6" height="6" fill="#ffd9c2" />
  <rect class="pixel" x="588" y="48" width="6" height="6" fill="#ffd9c2" />
  <rect class="pixel" x="594" y="48" width="6" height="6" fill="#ffd9c2" />
  <rect class="pixel" x="600" y="48" width="6" height="6" fill="#ffd9c2" />
  <rect class="pixel" x="576" y="54" width="6" height="6" fill="#ffd9c2" />
  <rect class="pixel" x="600" y="54" width="6" height="6" fill="#ffd9c2" />
  <rect class="pixel" x="576" y="60" width="6" height="6" fill="#ffd9c2" />
  <rect class="pixel" x="600" y="60" width="6" height="6" fill="#ffd9c2" />
  <rect class="pixel" x="576" y="66" width="6" height="6" fill="#ffd9c2" />
  <rect class="pixel" x="600" y="66" width="6" height="6" fill="#ffd9c2" />
  <rect class="pixel" x="618" y="30" width="6" height="6" fill="#ffd9c2" />
  <rect class="pixel" x="618" y="36" width="6" height="6" fill="#ffd9c2" />
  <rect class="pixel" x="618" y="42" width="6" height="6" fill="#ffd9c2" />
  <rect class="pixel" x="618" y="48" width="6" height="6" fill="#ffd9c2" />
  <rect class="pixel" x="618" y="54" width="6" height="6" fill="#ffd9c2" />
  <rect class="pixel" x="618" y="60" width="6" height="6" fill="#ffd9c2" />
  <rect class="pixel" x="618" y="66" width="6" height="6" fill="#ffd9c2" />
  <rect class="pixel" x="624" y="66" width="6" height="6" fill="#ffd9c2" />
  <rect class="pixel" x="630" y="66" width="6" height="6" fill="#ffd9c2" />
  <rect class="pixel" x="636" y="66" width="6" height="6" fill="#ffd9c2" />
  <rect class="pixel" x="642" y="66" width="6" height="6" fill="#ffd9c2" />
  <rect class="pixel" x="660" y="30" width="6" height="6" fill="#ffd9c2" />
  <rect class="pixel" x="666" y="30" width="6" height="6" fill="#ffd9c2" />
  <rect class="pixel" x="672" y="30" width="6" height="6" fill="#ffd9c2" />
  <rect class="pixel" x="678" y="30" width="6" height="6" fill="#ffd9c2" />
  <rect class="pixel" x="684" y="30" width="6" height="6" fill="#ffd9c2" />
  <rect class="pixel" x="672" y="36" width="6" height="6" fill="#ffd9c2" />
  <rect class="pixel" x="672" y="42" width="6" height="6" fill="#ffd9c2" />
  <rect class="pixel" x="672" y="48" width="6" height="6" fill="#ffd9c2" />
  <rect class="pixel" x="672" y="54" width="6" height="6" fill="#ffd9c2" />
  <rect class="pixel" x="672" y="60" width="6" height="6" fill="#ffd9c2" />
  <rect class="pixel" x="660" y="66" width="6" height="6" fill="#ffd9c2" />
  <rect class="pixel" x="666" y="66" width="6" height="6" fill="#ffd9c2" />
  <rect class="pixel" x="672" y="66" width="6" height="6" fill="#ffd9c2" />
  <rect class="pixel" x="678" y="66" width="6" height="6" fill="#ffd9c2" />
  <rect class="pixel" x="684" y="66" width="6" height="6" fill="#ffd9c2" />
  <rect class="pixel" x="24" y="24" width="6" height="6" fill="#140a3a" />
  <rect class="pixel" x="30" y="24" width="6" height="6" fill="#140a3a" />
  <rect class="pixel" x="36" y="24" width="6" height="6" fill="#140a3a" />
  <rect class="pixel" x="42" y="24" width="6" height="6" fill="#140a3a" />
  <rect class="pixel" x="24" y="30" width="6" height="6" fill="#140a3a" />
  <rect class="pixel" x="48" y="30" width="6" height="6" fill="#140a3a" />
  <rect class="pixel" x="24" y="36" width="6" height="6" fill="#140a3a" />
  <rect class="pixel" x="48" y="36" width="6" height="6" fill="#140a3a" />
  <rect class="pixel" x="24" y="42" width="6" height="6" fill="#140a3a" />
  <rect class="pixel" x="30" y="42" width="6" height="6" fill="#140a3a" />
  <rect class="pixel" x="36" y="42" width="6" height="6" fill="#140a3a" />
  <rect class="pixel" x="42" y="42" width="6" height="6" fill="#140a3a" />
  <rect class="pixel" x="24" y="48" width="6" height="6" fill="#140a3a" />
  <rect class="pixel" x="36" y="48" width="6" height="6" fill="#140a3a" />
  <rect class="pixel" x="24" y="54" width="6" height="6" fill="#140a3a" />
  <rect class="pixel" x="42" y="54" width="6" height="6" fill="#140a3a" />
  <rect class="pixel" x="24" y="60" width="6" height="6" fill="#140a3a" />
  <rect class="pixel" x="48" y="60" width="6" height="6" fill="#140a3a" />
  <rect class="pixel" x="66" y="24" width="6" height="6" fill="#140a3a" />
  <rect class="pixel" x="72" y="24" width="6" height="6" fill="#140a3a" />
  <rect class="pixel" x="78" y="24" width="6" height="6" fill="#140a3a" />
  <rect class="pixel" x="84" y="24" width="6" height="6" fill="#140a3a" />
  <rect class="pixel" x="90" y="24" width="6" height="6" fill="#140a3a" />
  <rect class="pixel" x="78" y="30" width="6" height="6" fill="#140a3a" />
  <rect class="pixel" x="78" y="36" width="6" height="6" fill="#140a3a" />
  <rect class="pixel" x="78" y="42" width="6" height="6" fill="#140a3a" />
  <rect class="pixel" x="78" y="48" width="6" height="6" fill="#140a3a" />
  <rect class="pixel" x="78" y="54" width="6" height="6" fill="#140a3a" />
  <rect class="pixel" x="66" y="60" width="6" height="6" fill="#140a3a" />
  <rect class="pixel" x="72" y="60" width="6" height="6" fill="#140a3a" />
  <rect class="pixel" x="78" y="60" width="6" height="6" fill="#140a3a" />
  <rect class="pixel" x="84" y="60" width="6" height="6" fill="#140a3a" />
  <rect class="pixel" x="90" y="60" width="6" height="6" fill="#140a3a" />
  <rect class="pixel" x="114" y="24" width="6" height="6" fill="#140a3a" />
  <rect class="pixel" x="120" y="24" width="6" height="6" fill="#140a3a" />
  <rect class="pixel" x="126" y="24" width="6" height="6" fill="#140a3a" />
  <rect class="pixel" x="132" y="24" width="6" height="6" fill="#140a3a" />
  <rect class="pixel" x="108" y="30" width="6" height="6" fill="#140a3a" />
  <rect class="pixel" x="108" y="36" width="6" height="6" fill="#140a3a" />
  <rect class="pixel" x="114" y="42" width="6" height="6" fill="#140a3a" />
  <rect class="pixel" x="120" y="42" width="6" height="6" fill="#140a3a" />
  <rect class="pixel" x="126" y="42" width="6" height="6" fill="#140a3a" />
  <rect class="pixel" x="132" y="48" width="6" height="6" fill="#140a3a" />
  <rect class="pixel" x="132" y="54" width="6" height="6" fill="#140a3a" />
  <rect class="pixel" x="108" y="60" width="6" height="6" fill="#140a3a" />
  <rect class="pixel" x="114" y="60" width="6" height="6" fill="#140a3a" />
  <rect class="pixel" x="120" y="60" width="6" height="6" fill="#140a3a" />
  <rect class="pixel" x="126" y="60" width="6" height="6" fill="#140a3a" />
  <rect class="pixel" x="150" y="24" width="6" height="6" fill="#140a3a" />
  <rect class="pixel" x="174" y="24" width="6" height="6" fill="#140a3a" />
  <rect class="pixel" x="150" y="30" width="6" height="6" fill="#140a3a" />
  <rect class="pixel" x="174" y="30" width="6" height="6" fill="#140a3a" />
  <rect class="pixel" x="150" y="36" width="6" height="6" fill="#140a3a" />
  <rect class="pixel" x="174" y="36" width="6" height="6" fill="#140a3a" />
  <rect class="pixel" x="150" y="42" width="6" height="6" fill="#140a3a" />
  <rect class="pixel" x="156" y="42" width="6" height="6" fill="#140a3a" />
  <rect class="pixel" x="162" y="42" width="6" height="6" fill="#140a3a" />
  <rect class="pixel" x="168" y="42" width="6" height="6" fill="#140a3a" />
  <rect class="pixel" x="174" y="42" width="6" height="6" fill="#140a3a" />
  <rect class="pixel" x="150" y="48" width="6" height="6" fill="#140a3a" />
  <rect class="pixel" x="174" y="48" width="6" height="6" fill="#140a3a" />
  <rect class="pixel" x="150" y="54" width="6" height="6" fill="#140a3a" />
  <rect class="pixel" x="174" y="54" width="6" height="6" fill="#140a3a" />
  <rect class="pixel" x="150" y="60" width="6" height="6" fill="#140a3a" />
  <rect class="pixel" x="174" y="60" width="6" height="6" fill="#140a3a" />
  <rect class="pixel" x="192" y="24" width="6" height="6" fill="#140a3a" />
  <rect class="pixel" x="198" y="24" width="6" height="6" fill="#140a3a" />
  <rect class="pixel" x="204" y="24" width="6" height="6" fill="#140a3a" />
  <rect class="pixel" x="210" y="24" width="6" height="6" fill="#140a3a" />
  <rect class="pixel" x="216" y="24" width="6" height="6" fill="#140a3a" />
  <rect class="pixel" x="204" y="30" width="6" height="6" fill="#140a3a" />
  <rect class="pixel" x="204" y="36" width="6" height="6" fill="#140a3a" />
  <rect class="pixel" x="204" y="42" width="6" height="6" fill="#140a3a" />
  <rect class="pixel" x="204" y="48" width="6" height="6" fill="#140a3a" />
  <rect class="pixel" x="204" y="54" width="6" height="6" fill="#140a3a" />
  <rect class="pixel" x="192" y="60" width="6" height="6" fill="#140a3a" />
  <rect class="pixel" x="198" y="60" width="6" height="6" fill="#140a3a" />
  <rect class="pixel" x="204" y="60" width="6" height="6" fill="#140a3a" />
  <rect class="pixel" x="210" y="60" width="6" height="6" fill="#140a3a" />
  <rect class="pixel" x="216" y="60" width="6" height="6" fill="#140a3a" />
  <rect class="pixel" x="276" y="24" width="6" height="6" fill="#140a3a" />
  <rect class="pixel" x="282" y="24" width="6" height="6" fill="#140a3a" />
  <rect class="pixel" x="288" y="24" width="6" height="6" fill="#140a3a" />
  <rect class="pixel" x="294" y="24" width="6" height="6" fill="#140a3a" />
  <rect class="pixel" x="276" y="30" width="6" height="6" fill="#140a3a" />
  <rect class="pixel" x="300" y="30" width="6" height="6" fill="#140a3a" />
  <rect class="pixel" x="276" y="36" width="6" height="6" fill="#140a3a" />
  <rect class="pixel" x="300" y="36" width="6" height="6" fill="#140a3a" />
  <rect class="pixel" x="276" y="42" width="6" height="6" fill="#140a3a" />
  <rect class="pixel" x="282" y="42" width="6" height="6" fill="#140a3a" />
  <rect class="pixel" x="288" y="42" width="6" height="6" fill="#140a3a" />
  <rect class="pixel" x="294" y="42" width="6" height="6" fill="#140a3a" />
  <rect class="pixel" x="276" y="48" width="6" height="6" fill="#140a3a" />
  <rect class="pixel" x="300" y="48" width="6" height="6" fill="#140a3a" />
  <rect class="pixel" x="276" y="54" width="6" height="6" fill="#140a3a" />
  <rect class="pixel" x="300" y="54" width="6" height="6" fill="#140a3a" />
  <rect class="pixel" x="276" y="60" width="6" height="6" fill="#140a3a" />
  <rect class="pixel" x="282" y="60" width="6" height="6" fill="#140a3a" />
  <rect class="pixel" x="288" y="60" width="6" height="6" fill="#140a3a" />
  <rect class="pixel" x="294" y="60" width="6" height="6" fill="#140a3a" />
  <rect class="pixel" x="318" y="24" width="6" height="6" fill="#140a3a" />
  <rect class="pixel" x="342" y="24" width="6" height="6" fill="#140a3a" />
  <rect class="pixel" x="318" y="30" width="6" height="6" fill="#140a3a" />
  <rect class="pixel" x="342" y="30" width="6" height="6" fill="#140a3a" />
  <rect class="pixel" x="318" y="36" width="6" height="6" fill="#140a3a" />
  <rect class="pixel" x="342" y="36" width="6" height="6" fill="#140a3a" />
  <rect class="pixel" x="318" y="42" width="6" height="6" fill="#140a3a" />
  <rect class="pixel" x="324" y="42" width="6" height="6" fill="#140a3a" />
  <rect class="pixel" x="330" y="42" width="6" height="6" fill="#140a3a" />
  <rect class="pixel" x="336" y="42" width="6" height="6" fill="#140a3a" />
  <rect class="pixel" x="342" y="42" width="6" height="6" fill="#140a3a" />
  <rect class="pixel" x="318" y="48" width="6" height="6" fill="#140a3a" />
  <rect class="pixel" x="342" y="48" width="6" height="6" fill="#140a3a" />
  <rect class="pixel" x="318" y="54" width="6" height="6" fill="#140a3a" />
  <rect class="pixel" x="342" y="54" width="6" height="6" fill="#140a3a" />
  <rect class="pixel" x="318" y="60" width="6" height="6" fill="#140a3a" />
  <rect class="pixel" x="342" y="60" width="6" height="6" fill="#140a3a" />
  <rect class="pixel" x="366" y="24" width="6" height="6" fill="#140a3a" />
  <rect class="pixel" x="372" y="24" width="6" height="6" fill="#140a3a" />
  <rect class="pixel" x="378" y="24" width="6" height="6" fill="#140a3a" />
  <rect class="pixel" x="360" y="30" width="6" height="6" fill="#140a3a" />
  <rect class="pixel" x="384" y="30" width="6" height="6" fill="#140a3a" />
  <rect class="pixel" x="360" y="36" width="6" height="6" fill="#140a3a" />
  <rect class="pixel" x="384" y="36" width="6" height="6" fill="#140a3a" />
  <rect class="pixel" x="360" y="42" width="6" height="6" fill="#140a3a" />
  <rect class="pixel" x="366" y="42" width="6" height="6" fill="#140a3a" />
  <rect class="pixel" x="372" y="42" width="6" height="6" fill="#140a3a" />
  <rect class="pixel" x="378" y="42" width="6" height="6" fill="#140a3a" />
  <rect class="pixel" x="384" y="42" width="6" height="6" fill="#140a3a" />
  <rect class="pixel" x="360" y="48" width="6" height="6" fill="#140a3a" />
  <rect class="pixel" x="384" y="48" width="6" height="6" fill="#140a3a" />
  <rect class="pixel" x="360" y="54" width="6" height="6" fill="#140a3a" />
  <rect class="pixel" x="384" y="54" width="6" height="6" fill="#140a3a" />
  <rect class="pixel" x="360" y="60" width="6" height="6" fill="#140a3a" />
  <rect class="pixel" x="384" y="60" width="6" height="6" fill="#140a3a" />
  <rect class="pixel" x="402" y="24" width="6" height="6" fill="#140a3a" />
  <rect class="pixel" x="426" y="24" width="6" height="6" fill="#140a3a" />
  <rect class="pixel" x="402" y="30" width="6" height="6" fill="#140a3a" />
  <rect class="pixel" x="408" y="30" width="6" height="6" fill="#140a3a" />
  <rect class="pixel" x="426" y="30" width="6" height="6" fill="#140a3a" />
  <rect class="pixel" x="402" y="36" width="6" height="6" fill="#140a3a" />
  <rect class="pixel" x="414" y="36" width="6" height="6" fill="#140a3a" />
  <rect class="pixel" x="426" y="36" width="6" height="6" fill="#140a3a" />
  <rect class="pixel" x="402" y="42" width="6" height="6" fill="#140a3a" />
  <rect class="pixel" x="420" y="42" width="6" height="6" fill="#140a3a" />
  <rect class="pixel" x="426" y="42" width="6" height="6" fill="#140a3a" />
  <rect class="pixel" x="402" y="48" width="6" height="6" fill="#140a3a" />
  <rect class="pixel" x="426" y="48" width="6" height="6" fill="#140a3a" />
  <rect class="pixel" x="402" y="54" width="6" height="6" fill="#140a3a" />
  <rect class="pixel" x="426" y="54" width="6" height="6" fill="#140a3a" />
  <rect class="pixel" x="402" y="60" width="6" height="6" fill="#140a3a" />
  <rect class="pixel" x="426" y="60" width="6" height="6" fill="#140a3a" />
  <rect class="pixel" x="444" y="24" width="6" height="6" fill="#140a3a" />
  <rect class="pixel" x="468" y="24" width="6" height="6" fill="#140a3a" />
  <rect class="pixel" x="444" y="30" width="6" height="6" fill="#140a3a" />
  <rect class="pixel" x="468" y="30" width="6" height="6" fill="#140a3a" />
  <rect class="pixel" x="444" y="36" width="6" height="6" fill="#140a3a" />
  <rect class="pixel" x="468" y="36" width="6" height="6" fill="#140a3a" />
  <rect class="pixel" x="444" y="42" width="6" height="6" fill="#140a3a" />
  <rect class="pixel" x="468" y="42" width="6" height="6" fill="#140a3a" />
  <rect class="pixel" x="444" y="48" width="6" height="6" fill="#140a3a" />
  <rect class="pixel" x="468" y="48" width="6" height="6" fill="#140a3a" />
  <rect class="pixel" x="444" y="54" width="6" height="6" fill="#140a3a" />
  <rect class="pixel" x="468" y="54" width="6" height="6" fill="#140a3a" />
  <rect class="pixel" x="450" y="60" width="6" height="6" fill="#140a3a" />
  <rect class="pixel" x="456" y="60" width="6" height="6" fill="#140a3a" />
  <rect class="pixel" x="462" y="60" width="6" height="6" fill="#140a3a" />
  <rect class="pixel" x="492" y="24" width="6" height="6" fill="#140a3a" />
  <rect class="pixel" x="498" y="24" width="6" height="6" fill="#140a3a" />
  <rect class="pixel" x="504" y="24" width="6" height="6" fill="#140a3a" />
  <rect class="pixel" x="510" y="24" width="6" height="6" fill="#140a3a" />
  <rect class="pixel" x="486" y="30" width="6" height="6" fill="#140a3a" />
  <rect class="pixel" x="486" y="36" width="6" height="6" fill="#140a3a" />
  <rect class="pixel" x="492" y="42" width="6" height="6" fill="#140a3a" />
  <rect class="pixel" x="498" y="42" width="6" height="6" fill="#140a3a" />
  <rect class="pixel" x="504" y="42" width="6" height="6" fill="#140a3a" />
  <rect class="pixel" x="510" y="48" width="6" height="6" fill="#140a3a" />
  <rect class="pixel" x="510" y="54" width="6" height="6" fill="#140a3a" />
  <rect class="pixel" x="486" y="60" width="6" height="6" fill="#140a3a" />
  <rect class="pixel" x="492" y="60" width="6" height="6" fill="#140a3a" />
  <rect class="pixel" x="498" y="60" width="6" height="6" fill="#140a3a" />
  <rect class="pixel" x="504" y="60" width="6" height="6" fill="#140a3a" />
  <rect class="pixel" x="528" y="24" width="6" height="6" fill="#140a3a" />
  <rect class="pixel" x="552" y="24" width="6" height="6" fill="#140a3a" />
  <rect class="pixel" x="528" y="30" width="6" height="6" fill="#140a3a" />
  <rect class="pixel" x="552" y="30" width="6" height="6" fill="#140a3a" />
  <rect class="pixel" x="528" y="36" width="6" height="6" fill="#140a3a" />
  <rect class="pixel" x="552" y="36" width="6" height="6" fill="#140a3a" />
  <rect class="pixel" x="528" y="42" width="6" height="6" fill="#140a3a" />
  <rect class="pixel" x="534" y="42" width="6" height="6" fill="#140a3a" />
  <rect class="pixel" x="540" y="42" width="6" height="6" fill="#140a3a" />
  <rect class="pixel" x="546" y="42" width="6" height="6" fill="#140a3a" />
  <rect class="pixel" x="552" y="42" width="6" height="6" fill="#140a3a" />
  <rect class="pixel" x="528" y="48" width="6" height="6" fill="#140a3a" />
  <rect class="pixel" x="552" y="48" width="6" height="6" fill="#140a3a" />
  <rect class="pixel" x="528" y="54" width="6" height="6" fill="#140a3a" />
  <rect class="pixel" x="552" y="54" width="6" height="6" fill="#140a3a" />
  <rect class="pixel" x="528" y="60" width="6" height="6" fill="#140a3a" />
  <rect class="pixel" x="552" y="60" width="6" height="6" fill="#140a3a" />
  <rect class="pixel" x="576" y="24" width="6" height="6" fill="#140a3a" />
  <rect class="pixel" x="582" y="24" width="6" height="6" fill="#140a3a" />
  <rect class="pixel" x="588" y="24" width="6" height="6" fill="#140a3a" />
  <rect class="pixel" x="570" y="30" width="6" height="6" fill="#140a3a" />
  <rect class="pixel" x="594" y="30" width="6" height="6" fill="#140a3a" />
  <rect class="pixel" x="570" y="36" width="6" height="6" fill="#140a3a" />
  <rect class="pixel" x="594" y="36" width="6" height="6" fill="#140a3a" />
  <rect class="pixel" x="570" y="42" width="6" height="6" fill="#140a3a" />
  <rect class="pixel" x="576" y="42" width="6" height="6" fill="#140a3a" />
  <rect class="pixel" x="582" y="42" width="6" height="6" fill="#140a3a" />
  <rect class="pixel" x="588" y="42" width="6" height="6" fill="#140a3a" />
  <rect class="pixel" x="594" y="42" width="6" height="6" fill="#140a3a" />
  <rect class="pixel" x="570" y="48" width="6" height="6" fill="#140a3a" />
  <rect class="pixel" x="594" y="48" width="6" height="6" fill="#140a3a" />
  <rect class="pixel" x="570" y="54" width="6" height="6" fill="#140a3a" />
  <rect class="pixel" x="594" y="54" width="6" height="6" fill="#140a3a" />
  <rect class="pixel" x="570" y="60" width="6" height="6" fill="#140a3a" />
  <rect class="pixel" x="594" y="60" width="6" height="6" fill="#140a3a" />
  <rect class="pixel" x="612" y="24" width="6" height="6" fill="#140a3a" />
  <rect class="pixel" x="612" y="30" width="6" height="6" fill="#140a3a" />
  <rect class="pixel" x="612" y="36" width="6" height="6" fill="#140a3a" />
  <rect class="pixel" x="612" y="42" width="6" height="6" fill="#140a3a" />
  <rect class="pixel" x="612" y="48" width="6" height="6" fill="#140a3a" />
  <rect class="pixel" x="612" y="54" width="6" height="6" fill="#140a3a" />
  <rect class="pixel" x="612" y="60" width="6" height="6" fill="#140a3a" />
  <rect class="pixel" x="618" y="60" width="6" height="6" fill="#140a3a" />
  <rect class="pixel" x="624" y="60" width="6" height="6" fill="#140a3a" />
  <rect class="pixel" x="630" y="60" width="6" height="6" fill="#140a3a" />
  <rect class="pixel" x="636" y="60" width="6" height="6" fill="#140a3a" />
  <rect class="pixel" x="654" y="24" width="6" height="6" fill="#140a3a" />
  <rect class="pixel" x="660" y="24" width="6" height="6" fill="#140a3a" />
  <rect class="pixel" x="666" y="24" width="6" height="6" fill="#140a3a" />
  <rect class="pixel" x="672" y="24" width="6" height="6" fill="#140a3a" />
  <rect class="pixel" x="678" y="24" width="6" height="6" fill="#140a3a" />
  <rect class="pixel" x="666" y="30" width="6" height="6" fill="#140a3a" />
  <rect class="pixel" x="666" y="36" width="6" height="6" fill="#140a3a" />
  <rect class="pixel" x="666" y="42" width="6" height="6" fill="#140a3a" />
  <rect class="pixel" x="666" y="48" width="6" height="6" fill="#140a3a" />
  <rect class="pixel" x="666" y="54" width="6" height="6" fill="#140a3a" />
  <rect class="pixel" x="654" y="60" width="6" height="6" fill="#140a3a" />
  <rect class="pixel" x="660" y="60" width="6" height="6" fill="#140a3a" />
  <rect class="pixel" x="666" y="60" width="6" height="6" fill="#140a3a" />
  <rect class="pixel" x="672" y="60" width="6" height="6" fill="#140a3a" />
  <rect class="pixel" x="678" y="60" width="6" height="6" fill="#140a3a" />
</svg>